<svg width="153" height="46" viewBox="0 0 153 46" fill="none" xmlns="http://www.w3.org/2000/svg">
<path d="M69.944 18.4H72.5V31H70.034V22.828L66.488 28.678H66.2L62.654 22.846V31H60.17V18.4H62.726L66.344 24.358L69.944 18.4ZM75.8917 20.92C75.5077 20.92 75.1717 20.782 74.8837 20.506C74.6077 20.218 74.4697 19.882 74.4697 19.498C74.4697 19.114 74.6077 18.778 74.8837 18.49C75.1717 18.202 75.5077 18.058 75.8917 18.058C76.2877 18.058 76.6237 18.202 76.8997 18.49C77.1877 18.778 77.3317 19.114 77.3317 19.498C77.3317 19.882 77.1877 20.218 76.8997 20.506C76.6237 20.782 76.2877 20.92 75.8917 20.92ZM77.0617 31H74.7397V22H77.0617V31ZM86.081 23.116V22H88.349V30.568C88.349 31.948 87.887 33.01 86.963 33.754C86.051 34.486 84.947 34.852 83.651 34.852C81.611 34.852 80.189 34.12 79.385 32.656L81.365 31.522C81.809 32.362 82.595 32.782 83.723 32.782C84.455 32.782 85.031 32.59 85.451 32.206C85.871 31.822 86.081 31.276 86.081 30.568V29.596C85.397 30.508 84.437 30.964 83.201 30.964C81.929 30.964 80.861 30.52 79.997 29.632C79.145 28.72 78.719 27.628 78.719 26.356C78.719 25.084 79.151 23.998 80.015 23.098C80.879 22.198 81.941 21.748 83.201 21.748C84.437 21.748 85.397 22.204 86.081 23.116ZM85.361 28.138C85.841 27.67 86.081 27.076 86.081 26.356C86.081 25.636 85.841 25.054 85.361 24.61C84.893 24.142 84.293 23.908 83.561 23.908C82.841 23.908 82.235 24.142 81.743 24.61C81.275 25.054 81.041 25.636 81.041 26.356C81.041 27.076 81.275 27.67 81.743 28.138C82.223 28.594 82.829 28.822 83.561 28.822C84.293 28.822 84.893 28.594 85.361 28.138ZM100.157 31H97.4746L94.9366 26.626H93.0466V31H90.5626V18.4H95.6026C96.7666 18.4 97.7566 18.808 98.5726 19.624C99.3886 20.44 99.7966 21.424 99.7966 22.576C99.7966 23.356 99.5746 24.082 99.1306 24.754C98.6866 25.414 98.0986 25.912 97.3666 26.248L100.157 31ZM95.6026 20.722H93.0466V24.448H95.6026C96.0706 24.448 96.4726 24.268 96.8086 23.908C97.1446 23.536 97.3126 23.092 97.3126 22.576C97.3126 22.06 97.1446 21.622 96.8086 21.262C96.4726 20.902 96.0706 20.722 95.6026 20.722ZM109.802 27.454H103.016C103.316 28.582 104.162 29.146 105.554 29.146C106.442 29.146 107.114 28.846 107.57 28.246L109.442 29.326C108.554 30.61 107.246 31.252 105.518 31.252C104.03 31.252 102.836 30.802 101.936 29.902C101.036 29.002 100.586 27.868 100.586 26.5C100.586 25.156 101.03 24.028 101.918 23.116C102.794 22.204 103.934 21.748 105.338 21.748C106.67 21.748 107.756 22.204 108.596 23.116C109.46 24.028 109.892 25.156 109.892 26.5C109.892 26.752 109.862 27.07 109.802 27.454ZM102.98 25.654H107.57C107.438 25.066 107.168 24.616 106.76 24.304C106.364 23.992 105.89 23.836 105.338 23.836C104.714 23.836 104.198 23.998 103.79 24.322C103.382 24.634 103.112 25.078 102.98 25.654ZM121.467 21.748C122.499 21.748 123.321 22.084 123.933 22.756C124.557 23.428 124.869 24.328 124.869 25.456V31H122.547V25.618C122.547 25.078 122.415 24.658 122.151 24.358C121.887 24.058 121.515 23.908 121.035 23.908C120.507 23.908 120.093 24.082 119.793 24.43C119.505 24.778 119.361 25.282 119.361 25.942V31H117.039V25.618C117.039 25.078 116.907 24.658 116.643 24.358C116.379 24.058 116.007 23.908 115.527 23.908C115.011 23.908 114.597 24.088 114.285 24.448C113.985 24.796 113.835 25.294 113.835 25.942V31H111.513V22H113.835V22.954C114.375 22.15 115.209 21.748 116.337 21.748C117.453 21.748 118.269 22.18 118.785 23.044C119.373 22.18 120.267 21.748 121.467 21.748ZM136.795 21.748C137.827 21.748 138.649 22.084 139.261 22.756C139.885 23.428 140.197 24.328 140.197 25.456V31H137.875V25.618C137.875 25.078 137.743 24.658 137.479 24.358C137.215 24.058 136.843 23.908 136.363 23.908C135.835 23.908 135.421 24.082 135.121 24.43C134.833 24.778 134.689 25.282 134.689 25.942V31H132.367V25.618C132.367 25.078 132.235 24.658 131.971 24.358C131.707 24.058 131.335 23.908 130.855 23.908C130.339 23.908 129.925 24.088 129.613 24.448C129.313 24.796 129.163 25.294 129.163 25.942V31H126.841V22H129.163V22.954C129.703 22.15 130.537 21.748 131.665 21.748C132.781 21.748 133.597 22.18 134.113 23.044C134.701 22.18 135.595 21.748 136.795 21.748ZM143.321 20.92C142.937 20.92 142.601 20.782 142.313 20.506C142.037 20.218 141.899 19.882 141.899 19.498C141.899 19.114 142.037 18.778 142.313 18.49C142.601 18.202 142.937 18.058 143.321 18.058C143.717 18.058 144.053 18.202 144.329 18.49C144.617 18.778 144.761 19.114 144.761 19.498C144.761 19.882 144.617 20.218 144.329 20.506C144.053 20.782 143.717 20.92 143.321 20.92ZM144.491 31H142.169V22H144.491V31ZM151.765 22V24.232H149.731V27.976C149.731 28.288 149.809 28.516 149.965 28.66C150.121 28.804 150.349 28.888 150.649 28.912C150.949 28.924 151.321 28.918 151.765 28.894V31C150.193 31.18 149.071 31.036 148.399 30.568C147.739 30.088 147.409 29.224 147.409 27.976V24.232H145.843V22H147.409V20.182L149.731 19.48V22H151.765Z" fill="#23342B"/>
<path d="M41.764 7.13883L15.28 12.6564C13.7891 12.9649 12.45 13.7777 11.4883 14.958C10.5266 16.1383 10.001 17.6139 10 19.1364V38.4372C10.0003 39.4212 10.22 40.3928 10.643 41.2813C11.066 42.1697 11.6816 42.9528 12.4453 43.5734C13.2089 44.194 14.1012 44.6367 15.0574 44.8691C16.0135 45.1016 17.0095 45.118 17.9728 44.9172L44.4544 39.3972C45.9453 39.0888 47.2844 38.2759 48.2461 37.0956C49.2078 35.9154 49.7334 34.4397 49.7344 32.9172V13.6212C49.7343 12.6373 49.515 11.6657 49.0923 10.7771C48.6696 9.88856 48.0542 9.10537 47.2908 8.48452C46.5275 7.86366 45.6353 7.42074 44.6793 7.18796C43.7232 6.95518 42.7273 6.9384 41.764 7.13883Z" fill="#FB8C3B"/>
<path d="M31.752 0.141337L5.28 5.65894C3.78909 5.96741 2.45002 6.78023 1.4883 7.96052C0.526587 9.1408 0.000980767 10.6164 0 12.1389L0 31.4397C0.000411729 32.4235 0.220022 33.3948 0.642868 34.2831C1.06571 35.1713 1.68117 35.9542 2.44449 36.5748C3.20782 37.1954 4.09984 37.6381 5.0557 37.8707C6.01157 38.1034 7.00726 38.1201 7.9704 37.9197L34.4544 32.3997C35.9453 32.0913 37.2844 31.2784 38.2461 30.0982C39.2078 28.9179 39.7334 27.4422 39.7344 25.9197V6.62374C39.7347 5.63852 39.5152 4.66565 39.0918 3.77604C38.6684 2.88644 38.0518 2.10252 37.2871 1.48144C36.5223 0.860364 35.6285 0.417774 34.671 0.185939C33.7134 -0.0458967 32.7162 -0.0611341 31.752 0.141337Z" fill="#51C634"/>
</svg>
