<svg width="166" height="176" viewBox="0 0 166 176" fill="none" xmlns="http://www.w3.org/2000/svg">
<path d="M56.0296 69.3869L29.5456 74.9045C28.0547 75.2129 26.7156 76.0258 25.7539 77.2061C24.7922 78.3863 24.2666 79.862 24.2656 81.3845V100.685C24.266 101.669 24.4856 102.641 24.9086 103.529C25.3316 104.418 25.9473 105.201 26.7109 105.821C27.4745 106.442 28.3668 106.885 29.323 107.117C30.2792 107.35 31.2751 107.366 32.2384 107.165L58.72 101.645C60.2109 101.337 61.55 100.524 62.5117 99.3437C63.4734 98.1634 63.999 96.6878 64 95.1653V75.8693C64 74.8853 63.7806 73.9137 63.3579 73.0252C62.9352 72.1366 62.3198 71.3534 61.5565 70.7326C60.7931 70.1117 59.9009 69.6688 58.9449 69.436C57.9889 69.2032 56.993 69.1864 56.0296 69.3869Z" fill="#FB8C3B"/>
<path d="M47.752 60.8308L21.28 66.3484C19.7891 66.6569 18.45 67.4697 17.4883 68.65C16.5266 69.8303 16.001 71.3059 16 72.8284V92.1292C16.0004 93.113 16.22 94.0843 16.6429 94.9725C17.0657 95.8608 17.6812 96.6437 18.4445 97.2643C19.2078 97.8848 20.0998 98.3276 21.0557 98.5602C22.0116 98.7928 23.0073 98.8096 23.9704 98.6092L50.4544 93.0892C51.9453 92.7807 53.2844 91.9679 54.2461 90.7876C55.2078 89.6073 55.7334 88.1317 55.7344 86.6092V67.3132C55.7347 66.328 55.5152 65.3551 55.0918 64.4655C54.6684 63.5759 54.0518 62.792 53.2871 62.1709C52.5223 61.5498 51.6285 61.1072 50.671 60.8754C49.7134 60.6436 48.7162 60.6283 47.752 60.8308Z" fill="#54C535"/>
<g clip-path="url(#clip0_502_2229)" filter="url(#filter0_f_502_2229)">
<path d="M48.0148 76.6944L34.7728 79.4532C34.0274 79.6075 33.3578 80.0139 32.877 80.604C32.3961 81.1941 32.1333 81.932 32.1328 82.6932V92.3436C32.133 92.8356 32.2428 93.3214 32.4543 93.7656C32.6658 94.2099 32.9736 94.6014 33.3554 94.9117C33.7372 95.222 34.1834 95.4433 34.6615 95.5596C35.1396 95.6758 35.6376 95.684 36.1192 95.5836L49.36 92.8236C50.1055 92.6694 50.775 92.263 51.2559 91.6728C51.7367 91.0827 51.9995 90.3449 52 89.5836V79.9356C52 79.4436 51.8903 78.9578 51.679 78.5136C51.4676 78.0693 51.1599 77.6777 50.7782 77.3673C50.3965 77.0568 49.9505 76.8354 49.4725 76.719C48.9944 76.6026 48.4965 76.5942 48.0148 76.6944Z" fill="#FB8C3B"/>
<path d="M43.876 72.4144L30.64 75.1732C29.8945 75.3275 29.225 75.7339 28.7442 76.324C28.2633 76.9142 28.0005 77.652 28 78.4132V88.0636C28.0002 88.5555 28.11 89.0412 28.3214 89.4853C28.5329 89.9294 28.8406 90.3209 29.2222 90.6312C29.6039 90.9414 30.0499 91.1628 30.5279 91.2791C31.0058 91.3954 31.5036 91.4038 31.9852 91.3036L45.2272 88.5436C45.9727 88.3894 46.6422 87.983 47.123 87.3928C47.6039 86.8027 47.8667 86.0649 47.8672 85.3036V75.6556C47.8674 75.163 47.7576 74.6766 47.5459 74.2318C47.3342 73.787 47.0259 73.395 46.6435 73.0845C46.2611 72.7739 45.8143 72.5526 45.3355 72.4367C44.8567 72.3208 44.3581 72.3132 43.876 72.4144Z" fill="#54C535"/>
<path d="M35.1615 85.8886L35.8359 85.7422V88.3546L35.1615 88.501V88.1926C35.064 88.3384 34.9386 88.4635 34.7926 88.5606C34.6466 88.6578 34.4828 88.7253 34.3107 88.759C34.1563 88.8009 33.9941 88.8046 33.838 88.7699C33.6818 88.7352 33.5364 88.6631 33.4143 88.5598C33.2877 88.447 33.1884 88.307 33.1237 88.1503C33.0591 87.9936 33.0308 87.8242 33.0411 87.655C33.041 87.2692 33.1727 86.8949 33.4143 86.5942C33.6309 86.2926 33.9493 86.0794 34.3107 85.9942C34.6767 85.915 34.9599 85.9798 35.1615 86.191V85.8886ZM33.9183 87.9946C33.9917 88.0486 34.0764 88.0852 34.166 88.1017C34.2556 88.1181 34.3478 88.1139 34.4355 88.0894C34.6429 88.0476 34.829 87.9342 34.9611 87.769C35.0966 87.6084 35.1699 87.4043 35.1675 87.1942C35.1735 87.1036 35.1579 87.0128 35.122 86.9294C35.0861 86.8459 35.031 86.7722 34.9611 86.7142C34.8874 86.66 34.8022 86.6234 34.7122 86.6072C34.6221 86.5909 34.5295 86.5955 34.4415 86.6206C34.2375 86.6645 34.0546 86.7772 33.9236 86.9396C33.7926 87.1021 33.7212 87.3047 33.7215 87.5134C33.7149 87.6034 33.7292 87.6936 33.7633 87.7771C33.7975 87.8606 33.8505 87.9351 33.9183 87.9946Z" fill="white"/>
<path d="M38.0436 85.9115L37.4544 86.0411V87.1211C37.4499 87.155 37.4536 87.1895 37.4653 87.2217C37.477 87.2539 37.4963 87.2827 37.5216 87.3059C37.5821 87.34 37.6535 87.3494 37.7208 87.3323C37.8297 87.3143 37.9375 87.2898 38.0436 87.2591V87.8711C37.5816 88.0235 37.254 88.0511 37.0644 87.9527C36.8748 87.8543 36.78 87.6263 36.78 87.2675V86.1815L36.3252 86.2799V85.6319L36.78 85.5335V85.0055L37.4544 84.6562V85.3871L38.0436 85.2587V85.9115Z" fill="white"/>
<path d="M38.9584 84.7523C38.9088 84.7651 38.8569 84.7664 38.8068 84.756C38.7566 84.7456 38.7095 84.7238 38.6692 84.6923C38.6297 84.6609 38.5982 84.6206 38.5773 84.5747C38.5565 84.5288 38.5468 84.4786 38.5492 84.4283C38.5564 84.3113 38.6001 84.1995 38.6741 84.1087C38.7482 84.0179 38.8489 83.9525 38.962 83.9219C39.0125 83.9081 39.0656 83.9064 39.1169 83.9171C39.1682 83.9277 39.2163 83.9503 39.2572 83.9831C39.2966 84.0147 39.328 84.0552 39.3489 84.1013C39.3697 84.1474 39.3794 84.1977 39.3772 84.2483C39.3757 84.3647 39.3332 84.4769 39.2572 84.5651C39.1825 84.6605 39.0768 84.7267 38.9584 84.7523ZM38.6248 87.7523V85.1375L39.298 84.9911V87.6011L38.6248 87.7523Z" fill="white"/>
<path d="M41.2619 87.2493C40.8683 87.3349 40.5399 87.2737 40.2767 87.0657C40.1445 86.9582 40.0396 86.821 39.9705 86.6652C39.9015 86.5094 39.8703 86.3395 39.8795 86.1693C39.8799 85.7779 40.0194 85.3993 40.2731 85.1013C40.5204 84.7892 40.8688 84.5732 41.2583 84.4905C41.4882 84.434 41.7295 84.4453 41.9531 84.5229C42.154 84.591 42.3242 84.7284 42.4331 84.9105L41.8535 85.3761C41.8016 85.2807 41.716 85.208 41.6135 85.1721C41.4977 85.1314 41.3726 85.1255 41.2535 85.1553C41.0551 85.1969 40.8775 85.3069 40.7519 85.4661C40.6212 85.622 40.5505 85.8195 40.5527 86.0229C40.5468 86.1109 40.5618 86.199 40.5964 86.2801C40.631 86.3613 40.6843 86.4331 40.7519 86.4897C40.8227 86.5429 40.9048 86.5788 40.9919 86.5946C41.079 86.6105 41.1686 86.6058 41.2535 86.5809C41.3851 86.5533 41.5084 86.4954 41.6135 86.4117C41.7182 86.3318 41.8009 86.2265 41.8535 86.1057L42.4391 86.3133C42.324 86.5454 42.1603 86.75 41.9591 86.9133C41.7565 87.0787 41.5176 87.1939 41.2619 87.2493Z" fill="white"/>
<path d="M44.8458 83.787L45.5202 83.6406V86.253L44.8458 86.4006V86.0922C44.7482 86.238 44.6229 86.3631 44.4768 86.4603C44.3308 86.5575 44.1671 86.6249 43.995 86.6586C43.8401 86.6997 43.6776 86.7025 43.5214 86.6667C43.3653 86.631 43.2201 86.5578 43.0986 86.4534C42.9728 86.3413 42.8739 86.2023 42.8093 86.0466C42.7447 85.891 42.716 85.7229 42.7254 85.5546C42.7253 85.1688 42.8569 84.7946 43.0986 84.4938C43.3162 84.1944 43.6344 83.9835 43.995 83.8998C44.361 83.8206 44.6442 83.8854 44.8458 84.0966V83.787ZM43.6002 85.893C43.6735 85.9471 43.7582 85.9837 43.8478 86.0001C43.9374 86.0165 44.0296 86.0123 44.1174 85.9878C44.3227 85.945 44.5065 85.8316 44.637 85.6674C44.7725 85.5068 44.8457 85.3028 44.8434 85.0926C44.8493 85.002 44.8337 84.9113 44.7978 84.8278C44.762 84.7444 44.7068 84.6706 44.637 84.6126C44.5632 84.5584 44.4781 84.5218 44.388 84.5056C44.2979 84.4894 44.2054 84.494 44.1174 84.519C43.9133 84.563 43.7305 84.6756 43.5994 84.8381C43.4684 85.0006 43.3971 85.2031 43.3974 85.4118C43.3914 85.5023 43.4067 85.5929 43.4419 85.6764C43.4771 85.7599 43.5313 85.8341 43.6002 85.893Z" fill="white"/>
</g>
<path d="M82.944 76.4H85.5V89H83.034V80.828L79.488 86.678H79.2L75.654 80.846V89H73.17V76.4H75.726L79.344 82.358L82.944 76.4ZM88.8917 78.92C88.5077 78.92 88.1717 78.782 87.8837 78.506C87.6077 78.218 87.4697 77.882 87.4697 77.498C87.4697 77.114 87.6077 76.778 87.8837 76.49C88.1717 76.202 88.5077 76.058 88.8917 76.058C89.2877 76.058 89.6237 76.202 89.8997 76.49C90.1877 76.778 90.3317 77.114 90.3317 77.498C90.3317 77.882 90.1877 78.218 89.8997 78.506C89.6237 78.782 89.2877 78.92 88.8917 78.92ZM90.0617 89H87.7397V80H90.0617V89ZM99.081 81.116V80H101.349V88.568C101.349 89.948 100.887 91.01 99.963 91.754C99.051 92.486 97.947 92.852 96.651 92.852C94.611 92.852 93.189 92.12 92.385 90.656L94.365 89.522C94.809 90.362 95.595 90.782 96.723 90.782C97.455 90.782 98.031 90.59 98.451 90.206C98.871 89.822 99.081 89.276 99.081 88.568V87.596C98.397 88.508 97.437 88.964 96.201 88.964C94.929 88.964 93.861 88.52 92.997 87.632C92.145 86.72 91.719 85.628 91.719 84.356C91.719 83.084 92.151 81.998 93.015 81.098C93.879 80.198 94.941 79.748 96.201 79.748C97.437 79.748 98.397 80.204 99.081 81.116ZM98.361 86.138C98.841 85.67 99.081 85.076 99.081 84.356C99.081 83.636 98.841 83.054 98.361 82.61C97.893 82.142 97.293 81.908 96.561 81.908C95.841 81.908 95.235 82.142 94.743 82.61C94.275 83.054 94.041 83.636 94.041 84.356C94.041 85.076 94.275 85.67 94.743 86.138C95.223 86.594 95.829 86.822 96.561 86.822C97.293 86.822 97.893 86.594 98.361 86.138ZM113.157 89H110.475L107.937 84.626H106.047V89H103.563V76.4H108.603C109.767 76.4 110.757 76.808 111.573 77.624C112.389 78.44 112.797 79.424 112.797 80.576C112.797 81.356 112.575 82.082 112.131 82.754C111.687 83.414 111.099 83.912 110.367 84.248L113.157 89ZM108.603 78.722H106.047V82.448H108.603C109.071 82.448 109.473 82.268 109.809 81.908C110.145 81.536 110.313 81.092 110.313 80.576C110.313 80.06 110.145 79.622 109.809 79.262C109.473 78.902 109.071 78.722 108.603 78.722ZM122.802 85.454H116.016C116.316 86.582 117.162 87.146 118.554 87.146C119.442 87.146 120.114 86.846 120.57 86.246L122.442 87.326C121.554 88.61 120.246 89.252 118.518 89.252C117.03 89.252 115.836 88.802 114.936 87.902C114.036 87.002 113.586 85.868 113.586 84.5C113.586 83.156 114.03 82.028 114.918 81.116C115.794 80.204 116.934 79.748 118.338 79.748C119.67 79.748 120.756 80.204 121.596 81.116C122.46 82.028 122.892 83.156 122.892 84.5C122.892 84.752 122.862 85.07 122.802 85.454ZM115.98 83.654H120.57C120.438 83.066 120.168 82.616 119.76 82.304C119.364 81.992 118.89 81.836 118.338 81.836C117.714 81.836 117.198 81.998 116.79 82.322C116.382 82.634 116.112 83.078 115.98 83.654ZM134.467 79.748C135.499 79.748 136.321 80.084 136.933 80.756C137.557 81.428 137.869 82.328 137.869 83.456V89H135.547V83.618C135.547 83.078 135.415 82.658 135.151 82.358C134.887 82.058 134.515 81.908 134.035 81.908C133.507 81.908 133.093 82.082 132.793 82.43C132.505 82.778 132.361 83.282 132.361 83.942V89H130.039V83.618C130.039 83.078 129.907 82.658 129.643 82.358C129.379 82.058 129.007 81.908 128.527 81.908C128.011 81.908 127.597 82.088 127.285 82.448C126.985 82.796 126.835 83.294 126.835 83.942V89H124.513V80H126.835V80.954C127.375 80.15 128.209 79.748 129.337 79.748C130.453 79.748 131.269 80.18 131.785 81.044C132.373 80.18 133.267 79.748 134.467 79.748ZM149.795 79.748C150.827 79.748 151.649 80.084 152.261 80.756C152.885 81.428 153.197 82.328 153.197 83.456V89H150.875V83.618C150.875 83.078 150.743 82.658 150.479 82.358C150.215 82.058 149.843 81.908 149.363 81.908C148.835 81.908 148.421 82.082 148.121 82.43C147.833 82.778 147.689 83.282 147.689 83.942V89H145.367V83.618C145.367 83.078 145.235 82.658 144.971 82.358C144.707 82.058 144.335 81.908 143.855 81.908C143.339 81.908 142.925 82.088 142.613 82.448C142.313 82.796 142.163 83.294 142.163 83.942V89H139.841V80H142.163V80.954C142.703 80.15 143.537 79.748 144.665 79.748C145.781 79.748 146.597 80.18 147.113 81.044C147.701 80.18 148.595 79.748 149.795 79.748ZM156.321 78.92C155.937 78.92 155.601 78.782 155.313 78.506C155.037 78.218 154.899 77.882 154.899 77.498C154.899 77.114 155.037 76.778 155.313 76.49C155.601 76.202 155.937 76.058 156.321 76.058C156.717 76.058 157.053 76.202 157.329 76.49C157.617 76.778 157.761 77.114 157.761 77.498C157.761 77.882 157.617 78.218 157.329 78.506C157.053 78.782 156.717 78.92 156.321 78.92ZM157.491 89H155.169V80H157.491V89ZM164.765 80V82.232H162.731V85.976C162.731 86.288 162.809 86.516 162.965 86.66C163.121 86.804 163.349 86.888 163.649 86.912C163.949 86.924 164.321 86.918 164.765 86.894V89C163.193 89.18 162.071 89.036 161.399 88.568C160.739 88.088 160.409 87.224 160.409 85.976V82.232H158.843V80H160.409V78.182L162.731 77.48V80H164.765Z" fill="#242424"/>
<defs>
<filter id="filter0_f_502_2229" x="-52" y="-8" width="184" height="184" filterUnits="userSpaceOnUse" color-interpolation-filters="sRGB">
<feFlood flood-opacity="0" result="BackgroundImageFix"/>
<feBlend mode="normal" in="SourceGraphic" in2="BackgroundImageFix" result="shape"/>
<feGaussianBlur stdDeviation="40" result="effect1_foregroundBlur_502_2229"/>
</filter>
<clipPath id="clip0_502_2229">
<rect width="24" height="24" fill="white" transform="translate(28 72)"/>
</clipPath>
</defs>
</svg>
